<svg xmlns="http://www.w3.org/2000/svg" viewBox="0 0 512 512" width="512" height="512">
  <rect width="512" height="512" rx="96" fill="#0b3d2e"/>
  <circle cx="256" cy="256" r="150" fill="#f7f7f2"/>
  <g fill="none" stroke="#e0533d" stroke-width="10" stroke-linecap="round">
    <path d="M148 158 q30 30 30 98 q0 68 -30 98"/>
    <path d="M364 158 q-30 30 -30 98 q0 68 30 98"/>
    <g stroke-width="8">
      <path d="M171 175 l-18 -9 M168 200 l-22 -6 M166 228 l-24 -3 M166 256 l-24 0 M166 284 l-24 3 M168 312 l-22 6 M171 337 l-18 9"/>
      <path d="M341 175 l18 -9 M344 200 l22 -6 M346 228 l24 -3 M346 256 l24 0 M346 284 l24 3 M344 312 l22 6 M341 337 l18 9"/>
    </g>
  </g>
</svg>
